Music_RustboroCity:
	musicheader 4, 1, Music_RustboroCity_Ch1
	musicheader 1, 2, Music_RustboroCity_Ch2
	musicheader 1, 3, Music_RustboroCity_Ch3
	musicheader 1, 4, Music_RustboroCity_Ch4


Music_RustboroCity_Ch1:
	tempo 180
	dutycycle $3
	vibrato $12, $15
	tone $0001
	notetype $5, $91
	octave 3
	note __, 12
Music_RustboroCity_Ch1_loop_main:
	note __, 16
	note __, 6
	note A#, 1
	note B_, 1
	octave 4
	note C_, 4
	note C_, 4
	note C_, 4
	octave 3
	note A#, 4
	note A#, 4
	note A_, 4
	note A_, 4
	note A_, 4
	note A_, 4
	note G_, 4
	note A_, 4
	note A_, 4
	note A#, 4
	note A#, 8
	note A#, 1
	note A#, 1
	octave 4
	note C_, 1
	note C#, 1
	note D_, 4
	note D_, 4
	note D_, 4
	note C_, 4
	note C_, 4
	octave 3
	note B_, 4
	note B_, 4
	note B_, 4
	note B_, 4
	note G_, 4
	note B_, 4
	note B_, 4
	octave 4
	note C_, 4
	note C_, 8
	note C_, 1
	note C_, 1
	note C_, 1
	note C#, 1
	note D_, 4
	note D_, 4
	note D_, 4
	note C_, 4
	note C_, 4
	octave 3
	note B_, 4
	note B_, 4
	note B_, 4
	note B_, 4
	note B_, 4
	note G#, 4
	note G#, 4
	octave 4
	note C_, 4
	note C_, 4
	intensity $97
	octave 3
	note F#, 12
	note C_, 16
	octave 2
	note A#, 12
	note __, 12
	note F#, 4
	note A#, 16
	note __, 12
	intensity $95
	octave 4
	note F_, 4
	octave 5
	note G_, 4
	note F_, 4
	note __, 4
	note F_, 1
	note G_, 1
	note F_, 2
	note __, 4
	note D#, 4
	note D_, 2
	note __, 2
	octave 4
	note A#, 2
	note __, 2
	octave 5
	note C_, 4
	note C#, 2
	note C_, 1
	note C#, 1
	intensity $90
	note D_, 4
	intensity $97
	note D_, 16
	note D#, 4
	note __, 4
	note D_, 4
	note C_, 4
	octave 4
	note A#, 2
	note __, 6
	note G_, 4
	note __, 4
	note G_, 2
	note __, 2
	note G_, 4
	note A_, 4
	note A#, 12
	octave 5
	note C_, 2
	octave 4
	note A#, 2
	note A_, 8
	note __, 4
	note G_, 2
	note __, 6
	note A_, 2
	note __, 6
	note G_, 2
	note __, 2
	note G#, 4
	note F#, 1
	note G#, 1
	note F#, 2
	note F_, 4
	note D#, 3
	octave 5
	note E_, 1
	intensity $92
	note F_, 4
	octave 4
	note A#, 4
	octave 5
	note C_, 3
	note F#, 1
	intensity $97
	note F_, 8
	intensity $92
	octave 4
	note A#, 4
	octave 5
	note C_, 4
	intensity $97
	note F_, 8
	intensity $92
	octave 4
	note A#, 4
	octave 5
	note C_, 4
	intensity $97
	note F_, 12
	note F#, 8
	note __, 8
	intensity $91
	octave 4
	note D_, 4
	note D_, 4
	note D_, 4
	note C_, 4
	note C_, 4
	note D_, 4
	note D_, 4
	note D_, 4
	note C_, 4
	note C_, 4
	note D_, 4
	note D_, 4
	note D#, 4
	note D#, 4
	note F_, 4
	note F_, 4
	note F_, 4
	note C_, 4
	note C_, 4
	note F_, 4
	note C_, 4
	octave 3
	note A_, 4
	intensity $97
	octave 4
	note C_, 8
	octave 3
	note B_, 8
	octave 4
	intensity $93
	note C_, 4
	octave 3
	note B_, 4
	intensity $90
	octave 4
	note D_, 4
	intensity $70
	note C#, 1
	intensity $60
	octave 3
	intensity $50
	note B_, 1
	intensity $40
	note A#, 1
	intensity $31
	note G#, 9
	intensity $91
	octave 4
	note D#, 4
	note D#, 4
	note D#, 4
	octave 3
	note A#, 4
	note A#, 4
	octave 4
	note D#, 4
	note D#, 4
	note D#, 4
	octave 3
	note A#, 4
	note A#, 4
	octave 4
	note D#, 4
	note D#, 4
	octave 3
	note A#, 4
	note A#, 2
	note B_, 2
	intensity $94
	octave 4
	note C_, 4
	octave 3
	note A#, 4
	note A_, 4
	note A#, 8
	intensity $97
	note A_, 8
	note __, 4
	octave 4
	note D_, 8
	octave 3
	note B_, 8
	note G#, 8
	intensity $70
	note G_, 4
	note B_, 1
	octave 4
	note D_, 1
	note F_, 1
	note G_, 1
	note __, 8
	intensity $91
	note D_, 4
	note D_, 4
	note D_, 4
	note C_, 4
	note C_, 4
	note D_, 4
	note D_, 4
	note D_, 4
	note C_, 4
	note C_, 3
	note C#, 1
	note D_, 4
	note C_, 4
	note D_, 4
	note D#, 4
	note F_, 4
	note F_, 4
	note F_, 4
	note C_, 4
	note C_, 4
	note F_, 4
	note C_, 4
	octave 3
	note A_, 4
	intensity $97
	octave 4
	note C_, 8
	octave 3
	note B_, 8
	intensity $93
	octave 4
	note C_, 4
	octave 3
	note B_, 4
	intensity $90
	octave 4
	note D_, 4
	intensity $70
	note C#, 1
	intensity $60
	octave 3
	note B_, 1
	intensity $50
	note A#, 1
	intensity $40
	note G#, 1
	note __, 8
	intensity $91
	octave 4
	note D#, 4
	note D#, 4
	note D#, 4
	octave 3
	note A#, 4
	note A#, 4
	octave 4
	note D#, 4
	note D#, 4
	note D#, 4
	octave 3
	note A#, 4
	note A#, 4
	octave 4
	note D#, 4
	note D#, 4
	octave 3
	note A#, 4
	note A#, 2
	note B_, 2
	octave 4
	note C_, 4
	octave 3
	note A#, 4
	note A_, 4
	note A#, 4
	note A#, 4
	note A_, 4
	note A_, 4
	note F_, 4
	note F_, 4
	note A#, 4
	note A#, 4
	note A#, 4
	loopchannel 0, Music_RustboroCity_Ch1_loop_main
	
Music_RustboroCity_Ch2:
	dutycycle $1
	vibrato $12, $15
	tone $0001
	notetype $a, $87
	note __, 12
	octave 1
	note A_, 2
Music_RustboroCity_Ch2_loop_main:
	note A#, 6
	note A#, 2
	note F_, 6
	note F_, 2
	note A#, 6
	note A#, 2
	note F_, 2
	octave 2
	note F_, 2
	octave 1
	note F_, 4
	octave 2
	note C_, 6
	note C_, 2
	octave 1
	note G_, 6
	note G_, 2
	octave 2
	note C_, 6
	note C_, 2
	octave 1
	note G_, 2
	octave 2
	note G_, 2
	octave 1
	note G_, 4
	octave 2
	note F_, 6
	note F_, 2
	note C_, 6
	note C_, 2
	note F_, 6
	note F_, 2
	note C_, 2
	note F_, 2
	note D#, 3
	octave 1
	note F_, 1
	octave 2
	note F#, 6
	note C#, 8
	note C_, 8
	octave 1
	note B_, 8
	intensity $81
	note A_, 1
	note A_, 1
	intensity $87
	note A#, 6
	note A#, 2
	octave 2
	note F_, 6
	octave 1
	note F_, 2
	note A#, 6
	note A#, 2
	octave 2
	note A#, 2
	note F_, 2
	octave 1
	note F_, 2
	intensity $81
	note A#, 1
	note A#, 1
	intensity $87
	octave 2
	note C_, 6
	note C_, 2
	note G_, 6
	octave 1
	note G_, 2
	octave 2
	note C_, 6
	note C_, 2
	octave 3
	note C_, 2
	octave 2
	note G_, 2
	octave 1
	note G_, 2
	intensity $81
	octave 2
	note D#, 1
	note D#, 1
	intensity $87
	note F_, 6
	note F_, 2
	note F_, 6
	note F_, 2
	octave 1
	note F_, 2
	octave 2
	note F_, 4
	octave 1
	note F_, 2
	octave 2
	note C_, 2
	note G#, 2
	note C_, 2
	intensity $81
	octave 1
	note G#, 1
	note G#, 1
	intensity $87
	octave 2
	note F#, 6
	note C#, 8
	note C_, 8
	note F_, 8
	intensity $81
	note D_, 1
	note D_, 1
	intensity $87
	note D#, 6
	note D#, 2
	octave 1
	note A#, 6
	note A#, 2
	octave 2
	note D#, 6
	note D#, 2
	octave 1
	note A#, 2
	octave 2
	note D#, 4
	octave 1
	note A#, 2
	octave 2
	note D_, 6
	note D_, 2
	octave 1
	note A_, 6
	note A_, 2
	octave 2
	note D_, 6
	note F_, 2
	octave 1
	note G#, 2
	note G#, 4
	octave 2
	note D_, 2
	note C_, 6
	note D#, 2
	octave 1
	note G_, 6
	note G#, 2
	note A_, 6
	octave 2
	note F_, 2
	note D#, 6
	octave 1
	note A_, 2
	note A#, 6
	note A#, 2
	note A#, 2
	note A#, 4
	note F_, 2
	octave 2
	note G#, 6
	note G#, 2
	intensity $81
	note D_, 1
	note D_, 1
	intensity $87
	note G_, 4
	note D_, 2
	note D#, 6
	note D#, 2
	note D#, 6
	note D#, 2
	note D#, 6
	note D#, 2
	octave 1
	note A#, 2
	octave 2
	note D#, 4
	octave 1
	note A#, 2
	octave 2
	note D_, 6
	note D_, 2
	octave 1
	note A_, 6
	note A_, 2
	octave 2
	note D_, 6
	note D_, 2
	octave 1
	note G#, 2
	octave 2
	note C_, 2
	octave 1
	note B_, 2
	intensity $81
	octave 2
	note D_, 1
	octave 1
	note B_, 1
	intensity $87
	octave 2
	note C_, 6
	note C_, 2
	octave 1
	note G_, 6
	note G_, 2
	octave 2
	note C_, 6
	note C_, 2
	octave 1
	note F#, 6
	note F#, 2
	note A#, 6
	note A#, 2
	note F_, 6
	note F_, 4
	note A#, 2
	note A#, 2
	note A#, 2
	note A#, 2
	note A#, 2
	note F_, 4
	loopchannel 0, Music_RustboroCity_Ch2_loop_main
	
Music_RustboroCity_Ch3:
	vibrato $0, $14
	notetype $5, $13
	octave 4
	note A_, 4
	note A#, 4
	octave 5
	note C_, 4
Music_RustboroCity_Ch3_loop_main:
	intensity $13
	octave 4
	note A#, 4
	note A_, 1
	note A#, 1
	note A_, 2
	note G_, 4
	note A_, 4
	note F_, 16
	note __, 4
	note F_, 2
	note __, 2
	octave 5
	note G_, 3
	note F#, 1
	note F_, 4
	note __, 4
	note F_, 4
	note __, 4
	note D#, 4
	note D_, 2
	note __, 2
	octave 4
	note A#, 2
	note __, 2
	octave 5
	note C_, 4
	note C#, 4
	note D_, 16
	note __, 4
	note D#, 4
	note __, 4
	note D_, 4
	octave 4
	note G_, 14
	note __, 6
	note G_, 2
	note __, 2
	note G_, 4
	note A_, 4
	note A#, 11
	note B_, 1
	octave 5
	note C_, 2
	octave 4
	note A#, 2
	note A_, 8
	note __, 4
	note G_, 4
	note __, 3
	note G#, 1
	note A_, 4
	note __, 4
	note F_, 12
	note G_, 1
	note A_, 1
	note A#, 1
	octave 5
	note C_, 1
	note D_, 1
	note D#, 1
	note E_, 2
	note F_, 2
	note __, 2
	octave 4
	note A#, 2
	note __, 2
	octave 5
	note C_, 2
	note __, 2
	note F#, 1
	note F_, 7
	octave 4
	note A#, 2
	note __, 2
	octave 5
	note C_, 2
	note __, 2
	note F_, 8
	octave 4
	note A#, 2
	note __, 2
	octave 5
	note C_, 2
	note __, 2
	note G#, 4
	note __, 4
	note F#, 1
	note G#, 1
	note F#, 2
	note F_, 4
	note D#, 4
	intensity $26
	note C_, 7
	note C#, 1
	note D_, 3
	octave 4
	note B_, 1
	note A#, 16
	note A_, 2
	note __, 4
	octave 5
	note C_, 1
	octave 4
	note A#, 1
	note A_, 2
	note __, 6
	note G_, 2
	note __, 2
	note A_, 2
	note __, 6
	note A#, 8
	octave 5
	note D_, 8
	note D#, 3
	note C#, 1
	note C_, 16
	octave 4
	note G_, 2
	note __, 2
	octave 5
	note C_, 1
	octave 4
	note A#, 3
	note A_, 2
	note __, 2
	note A#, 2
	note __, 2
	octave 5
	note C_, 4
	note __, 4
	octave 4
	note G_, 2
	note __, 2
	note G_, 4
	note A_, 4
	note A#, 12
	octave 5
	note C_, 2
	octave 4
	note A#, 2
	note A_, 16
	note G_, 16
	note F#, 4
	note G#, 4
	note A#, 4
	octave 5
	note C_, 4
	note C#, 8
	note D#, 2
	note __, 2
	note C_, 12
	octave 4
	note A#, 2
	octave 5
	note D#, 2
	note F_, 2
	note A#, 2
	notetype $8, $26
	octave 6
	note C_, 1
	octave 5
	note A#, 1
	note A_, 1
	note A#, 1
	octave 6
	note C_, 1
	note D_, 1
	note C_, 1
	octave 5
	note A#, 1
	octave 6
	note C_, 1
	note D_, 1
	note D#, 1
	note D_, 1
	note C_, 1
	note D_, 1
	note D#, 1
	note F_, 1
	note D#, 1
	note D_, 1
	note D#, 1
	note F_, 1
	notetype $5, $19
	note G_, 4
	note F_, 1
	note D#, 1
	note C#, 1
	note C_, 1
	octave 5
	note G_, 7
	note __, 1
	note G_, 2
	note __, 2
	note G_, 2
	note __, 2
	note A_, 2
	note __, 1
	octave 6
	note C#, 1
	note C_, 6
	note __, 2
	note C_, 4
	octave 5
	note A#, 4
	note __, 4
	octave 6
	note D_, 2
	note __, 2
	note C_, 2
	note __, 2
	note D_, 2
	note __, 2
	note D#, 2
	note __, 2
	note F_, 16
	note __, 4
	note D#, 2
	note __, 2
	note D#, 2
	note __, 2
	note F_, 2
	note __, 2
	note G_, 8
	note F_, 8
	note C_, 2
	note __, 2
	octave 5
	note B_, 2
	note __, 2
	octave 6
	note C_, 2
	note __, 2
	note D_, 2
	note C#, 1
	note D_, 1
	note D#, 12
	octave 5
	note A#, 4
	note __, 4
	note A#, 2
	note __, 2
	octave 6
	note D#, 2
	note __, 2
	octave 5
	note A#, 2
	note __, 2
	note A#, 2
	note __, 2
	note A#, 2
	note __, 2
	note A_, 10
	note __, 2
	note G_, 4
	note A_, 4
	note G_, 2
	note B_, 2
	octave 6
	note C_, 4
	octave 5
	note A#, 2
	note __, 2
	note A_, 2
	note __, 2
	note A#, 4
	note __, 4
	note A_, 8
	note F_, 2
	note __, 2
	octave 6
	note D_, 16
	intensity $29
	note D_, 16
	intensity $12
	note G_, 4
	note F_, 1
	note D#, 1
	note C#, 1
	note C_, 1
	octave 5
	note A#, 8
	note __, 4
	note A#, 2
	note __, 2
	octave 6
	note C_, 2
	note __, 2
	note D#, 2
	note __, 6
	note D#, 2
	note __, 2
	note D_, 2
	note __, 6
	note D#, 8
	note F_, 4
	note E_, 2
	note D#, 2
	note D_, 8
	note __, 4
	note D_, 8
	note C#, 2
	note __, 2
	note C#, 2
	note __, 2
	note D_, 4
	note G_, 4
	note F_, 2
	note __, 6
	note D#, 8
	note D_, 2
	note D#, 2
	note F_, 4
	note E_, 2
	note D#, 2
	note D_, 8
	octave 5
	note A#, 2
	note __, 10
	note A#, 2
	note __, 2
	note A#, 2
	note __, 2
	octave 6
	note C_, 2
	note __, 2
	note D#, 2
	note __, 2
	note D#, 2
	note __, 2
	note D_, 8
	note D#, 8
	note F_, 4
	note E_, 2
	note D#, 2
	note D_, 2
	note __, 2
	note C_, 2
	note __, 2
	octave 5
	note A#, 2
	note __, 2
	note G_, 2
	note __, 6
	note A_, 2
	note __, 6
	note F_, 2
	note __, 6
	note A#, 2
	note __, 2
	note A#, 2
	note __, 2
	note A#, 2
	note __, 2
	loopchannel 0, Music_RustboroCity_Ch3_loop_main
	
Music_RustboroCity_Ch4:
	togglenoise $3
	notetype $a
	note __, 10
	note D_, 2
	note D_, 2
Music_RustboroCity_Ch4_loop_main:
Music_RustboroCity_Ch4_loop_1:
	note F#, 2
	note F#, 2
	note D_, 2
	note F#, 2
	note F#, 2
	note D_, 2
	note F#, 2
	note F#, 2
	note F#, 2
	note F#, 2
	note D_, 2
	note F#, 2
	note D_, 2
	note F#, 2
	note D_, 2
	note F#, 2
	loopchannel 8, Music_RustboroCity_Ch4_loop_1
	callchannel Music_RustboroCity_Ch4_branch_1
	callchannel Music_RustboroCity_Ch4_branch_1
	callchannel Music_RustboroCity_Ch4_branch_1
	note F#, 2
	note D_, 2
	note C#, 2
	note F#, 2
	note C_, 2
	note C_, 2
	note F#, 2
	note C_, 1
	note C_, 1
	callchannel Music_RustboroCity_Ch4_branch_1
	callchannel Music_RustboroCity_Ch4_branch_1
	callchannel Music_RustboroCity_Ch4_branch_1
	callchannel Music_RustboroCity_Ch4_branch_1
	callchannel Music_RustboroCity_Ch4_branch_2
	note F#, 2
	note D_, 2
	note E_, 2
	note F#, 2
	note F#, 2
	note E_, 2
	note E_, 2
	note F#, 2
	callchannel Music_RustboroCity_Ch4_branch_2
	callchannel Music_RustboroCity_Ch4_branch_3
	callchannel Music_RustboroCity_Ch4_branch_2
	callchannel Music_RustboroCity_Ch4_branch_3
	callchannel Music_RustboroCity_Ch4_branch_3
	note F#, 2
	note D_, 2
	note D_, 2
	note D_, 2
	note D_, 2
	note D_, 2
	note D_, 2
	note F#, 2
	loopchannel 0, Music_RustboroCity_Ch4_loop_main
	
Music_RustboroCity_Ch4_branch_1:
	note F#, 2
	note D_, 2
	note C#, 2
	note F#, 2
	note F#, 2
	note C_, 2
	note F#, 2
	note F#, 2
	endchannel
	
Music_RustboroCity_Ch4_branch_2:
	note F#, 2
	note D_, 2
	note E_, 2
	note F#, 2
	note F#, 2
	note E_, 2
	note F#, 2
	note F#, 2
	endchannel

Music_RustboroCity_Ch4_branch_3:
	note F#, 2
	note D_, 2
	note E_, 2
	note F#, 2
	note F#, 2
	note E_, 2
	note F#, 2
	note E_, 2
	endchannel